<svg width="150" height="150" viewBox="0 0 150 150" fill="none" xmlns="http://www.w3.org/2000/svg">
    <rect width="150" height="150" fill="#0061D9"/>
    <path d="M59.94 61.4498V34.2998H30V88.5998H34.845L59.94 61.4498Z" fill="white"/>
    <path d="M64.7849 88.5998L89.8799 61.4498V34.2998H85.0499L59.94 61.4498L59.9398 88.5998H64.7849Z" fill="white"/>
    <path d="M119.82 88.5998V34.2998H114.99L89.8799 61.4498L89.8799 88.5998H119.82Z" fill="white"/>
    <path d="M30 114.75L34.208 103.55H36.176L40.4 114.75H38.288L37.328 112.174H32.912L31.952 114.75H30ZM33.52 110.574H36.72L35.12 105.998L33.52 110.574Z" fill="white"/>
    <path d="M41.2504 116.75V113.246H42.2424C42.3597 113.086 42.461 112.862 42.5464 112.574C42.6424 112.275 42.7224 111.928 42.7864 111.534C42.861 111.128 42.9144 110.686 42.9464 110.206C42.9784 109.715 42.9944 109.203 42.9944 108.67V106.27H49.2504V113.246H50.3704V116.75H48.7864V114.75H42.8504V116.75H41.2504ZM44.0184 113.246H47.4904V107.774H44.6584V108.99C44.6584 109.416 44.6424 109.838 44.6104 110.254C44.589 110.659 44.5517 111.043 44.4984 111.406C44.445 111.758 44.3757 112.094 44.2904 112.414C44.2157 112.723 44.125 113 44.0184 113.246Z" fill="white"/>
    <path d="M51.8792 114.75V106.27H53.8792L56.5672 111.198L59.2553 106.27H61.1593V114.75H59.4473V108.91L57.1593 112.99H55.8792L53.5912 108.91V114.75H51.8792Z" fill="white"/>
    <path d="M63.3949 114.75V106.27H65.1389V112.238L69.2509 106.27H70.9149V114.75H69.1709V108.782L65.0589 114.75H63.3949Z" fill="white"/>
    <path d="M73.1605 114.75V106.27H74.9205V109.678H78.9205V106.27H80.6805V114.75H78.9205V111.182H74.9205V114.75H73.1605Z" fill="white"/>
</svg>
