<svg width="151" height="150" viewBox="0 0 151 150" fill="none" xmlns="http://www.w3.org/2000/svg">
    <g clip-path="url(#clip0_1177_12052)">
        <path d="M150.5 0H0.5V150H150.5V0Z" fill="#D0F053"/>
        <path d="M31 115.35V103.59H33.07V108.57H34.24L38.515 103.65H40.87L35.92 109.23L41.035 115.41H38.5L34.225 110.16H33.055V115.41L31 115.35Z" fill="black"/>
        <path d="M46.2101 115.53C45.639 115.533 45.0713 115.442 44.5301 115.26C44.0141 115.085 43.5429 114.798 43.1501 114.42C42.7316 114.022 42.4085 113.535 42.2051 112.995C41.9528 112.356 41.8304 111.672 41.8451 110.985V110.655C41.8295 109.997 41.9522 109.343 42.2051 108.735C42.4094 108.213 42.7329 107.745 43.1501 107.37C43.5438 106.997 44.015 106.715 44.5301 106.545C45.0686 106.351 45.6375 106.254 46.2101 106.26C46.7826 106.253 47.3517 106.35 47.8901 106.545C48.4053 106.724 48.8796 107.005 49.2851 107.37C49.6862 107.759 50.0073 108.223 50.2301 108.735C50.4812 109.343 50.6037 109.997 50.5901 110.655V110.985C50.6048 111.667 50.4824 112.346 50.2301 112.98C50.0153 113.515 49.6937 113.999 49.2851 114.405C48.8889 114.79 48.4125 115.082 47.8901 115.26C47.349 115.443 46.7811 115.534 46.2101 115.53ZM46.2101 113.925C46.5336 113.926 46.8545 113.865 47.1551 113.745C47.4558 113.631 47.7273 113.452 47.9501 113.22C48.1862 112.955 48.3648 112.643 48.4751 112.305C48.6222 111.881 48.6933 111.434 48.6851 110.985V110.655C48.6929 110.236 48.6215 109.818 48.4751 109.425C48.3617 109.102 48.1829 108.806 47.9501 108.555C47.7266 108.328 47.4548 108.153 47.1551 108.045C46.5494 107.825 45.8856 107.825 45.2801 108.045C44.9783 108.149 44.7057 108.324 44.4851 108.555C44.2473 108.805 44.0636 109.101 43.9451 109.425C43.8039 109.819 43.7378 110.237 43.7501 110.655V110.985C43.7372 111.433 43.8032 111.88 43.9451 112.305C44.06 112.644 44.2439 112.956 44.4851 113.22C44.7003 113.464 44.9738 113.65 45.2801 113.76C45.5786 113.867 45.893 113.923 46.2101 113.925Z" fill="black"/>
        <path d="M52.5391 115.35V106.455H54.3991V110.07H58.5991V106.5H60.4441V115.395H58.5991V111.57H54.3991V115.32L52.5391 115.35Z" fill="black"/>
        <path d="M62.9043 115.35V106.455H64.7643V110.07H65.7693L68.7693 106.47H70.8843L67.1943 110.7L71.0493 115.365H68.7693L65.7693 111.585H64.7643V115.365L62.9043 115.35Z" fill="black"/>
        <path d="M74.2761 118.89H74.0211H73.7661V117.285H74.0211H74.2761C74.4213 117.289 74.5651 117.258 74.6961 117.195C74.8344 117.132 74.9533 117.034 75.0411 116.91C75.1756 116.727 75.2913 116.531 75.3861 116.325C75.4911 116.07 75.6261 115.74 75.7611 115.35L71.9961 106.455H74.0511L76.7061 113.235L79.1661 106.455H81.0711L77.6961 115.35C77.4561 115.98 77.2161 116.52 77.0061 116.97C76.8223 117.37 76.5852 117.744 76.3011 118.08C76.0635 118.354 75.7657 118.57 75.4311 118.71C75.06 118.839 74.6688 118.9 74.2761 118.89Z" fill="black"/>
        <path d="M82.6289 118.71V106.455H84.3539V107.955C84.4928 107.699 84.6643 107.462 84.8639 107.25C85.0616 107.038 85.289 106.857 85.5389 106.71C85.805 106.553 86.0933 106.437 86.3939 106.365C87.241 106.161 88.1302 106.218 88.9439 106.53C89.4002 106.705 89.807 106.988 90.1289 107.355C90.4757 107.748 90.7271 108.215 90.8639 108.72C91.0427 109.344 91.1285 109.991 91.1189 110.64V110.97C91.1302 111.64 91.0391 112.308 90.8489 112.95C90.6959 113.473 90.4354 113.959 90.0839 114.375C89.7686 114.757 89.3606 115.051 88.8989 115.23C88.4225 115.423 87.9128 115.519 87.3989 115.515C86.7883 115.531 86.1856 115.375 85.6589 115.065C85.1785 114.783 84.7804 114.379 84.5039 113.895V118.695L82.6289 118.71ZM86.9489 113.955C87.2648 113.96 87.5777 113.894 87.8639 113.76C88.1437 113.634 88.3903 113.443 88.5839 113.205C88.8074 112.93 88.9756 112.614 89.0789 112.275C89.2048 111.857 89.2654 111.422 89.2589 110.985V110.655C89.2669 110.243 89.2061 109.832 89.0789 109.44C88.9757 109.119 88.8071 108.823 88.5839 108.57C88.3897 108.336 88.1431 108.151 87.8639 108.03C87.5753 107.904 87.2639 107.838 86.9489 107.835C86.6104 107.831 86.2744 107.892 85.9589 108.015C85.6639 108.126 85.3936 108.294 85.1639 108.51C84.9485 108.723 84.7799 108.978 84.6689 109.26C84.541 109.569 84.4747 109.9 84.4739 110.235V111.405C84.4756 111.764 84.5417 112.12 84.6689 112.455C84.7795 112.755 84.9476 113.03 85.1639 113.265C85.3928 113.486 85.663 113.659 85.9589 113.775C86.2744 113.898 86.6104 113.959 86.9489 113.955Z" fill="black"/>
        <path d="M96.7739 115.53C96.2076 115.536 95.6444 115.444 95.1089 115.26C94.6028 115.084 94.1454 114.791 93.7739 114.405C93.3837 113.999 93.0867 113.513 92.9039 112.98C92.6693 112.342 92.5572 111.665 92.5739 110.985V110.655C92.564 110.004 92.6811 109.356 92.9189 108.75C93.1289 108.238 93.4401 107.774 93.8339 107.385C94.2165 107.016 94.6709 106.73 95.1689 106.545C95.6838 106.359 96.2265 106.263 96.7739 106.26C97.2839 106.254 97.7912 106.336 98.2739 106.5C99.1008 106.767 99.7935 107.342 100.209 108.105C100.406 108.48 100.538 108.886 100.599 109.305H98.6939C98.6336 109.1 98.5479 108.904 98.4389 108.72C98.2188 108.373 97.8846 108.113 97.4939 107.985C97.2467 107.907 96.9881 107.872 96.7289 107.88C96.4314 107.883 96.1367 107.939 95.8589 108.045C95.5778 108.149 95.3258 108.319 95.1239 108.54C94.893 108.784 94.7189 109.076 94.6139 109.395C94.4858 109.802 94.425 110.228 94.4339 110.655V110.985C94.4265 111.437 94.4873 111.887 94.6139 112.32C94.7201 112.653 94.8879 112.964 95.1089 113.235C95.3094 113.465 95.5611 113.645 95.8439 113.76C96.1269 113.867 96.4265 113.923 96.7289 113.925C97.1786 113.941 97.6212 113.81 97.9889 113.55C98.3349 113.289 98.5832 112.919 98.6939 112.5H100.599C100.531 112.945 100.378 113.373 100.149 113.76C99.9407 114.132 99.6602 114.458 99.3239 114.72C98.9795 114.99 98.5878 115.193 98.1689 115.32C97.7183 115.465 97.2471 115.536 96.7739 115.53Z" fill="black"/>
        <path d="M60.94 61.4547V34.3047H31V88.6047H35.845L60.94 61.4547Z" fill="black"/>
        <path d="M65.7849 88.6047L90.8799 61.4547V34.3047H86.0499L60.94 61.4547L60.9398 88.6047H65.7849Z" fill="black"/>
        <path d="M120.82 88.6047V34.3047H115.99L90.8799 61.4547L90.8799 88.6047H120.82Z" fill="black"/>
    </g>
    <defs>
        <clipPath id="clip0_1177_12052">
            <rect width="150" height="150" fill="white" transform="translate(0.5)"/>
        </clipPath>
    </defs>
</svg>
