<svg width="151" height="150" viewBox="0 0 151 150" fill="none" xmlns="http://www.w3.org/2000/svg">
    <g clip-path="url(#clip0_1177_12066)">
        <path d="M150.5 0H0.5V150H150.5V0Z" fill="#FF2E56"/>
        <path d="M31 115.485V103.725H33.07V108.645H34.24L38.515 103.725H40.855L35.9198 109.305L41.035 115.485H38.5L34.2248 110.235H33.0548V115.485H31Z" fill="white"/>
        <path d="M46.2995 115.665C45.7283 115.669 45.1605 115.578 44.6195 115.395C44.1035 115.22 43.6323 114.933 43.2395 114.555C42.8213 114.154 42.4938 113.668 42.2795 113.13C42.0396 112.488 41.9226 111.806 41.9345 111.12V110.79C41.9222 110.134 42.0393 109.481 42.2795 108.87C42.4941 108.35 42.8222 107.883 43.2395 107.505C43.6332 107.132 44.1044 106.85 44.6195 106.68C45.7073 106.301 46.8917 106.301 47.9795 106.68C48.4946 106.85 48.9657 107.132 49.3595 107.505C49.77 107.889 50.0969 108.354 50.3195 108.87C50.5584 109.482 50.6756 110.134 50.6645 110.79V111.12C50.6766 111.801 50.5596 112.478 50.3195 113.115C50.1147 113.68 49.7868 114.193 49.3595 114.615C48.9711 115.002 48.4991 115.295 47.9795 115.47C47.4341 115.628 46.8663 115.694 46.2995 115.665ZM46.2995 114.06C46.623 114.06 46.9436 113.999 47.2445 113.88C47.5406 113.766 47.8071 113.586 48.0245 113.355C48.2655 113.091 48.4496 112.779 48.5645 112.44C48.7118 112.016 48.7827 111.569 48.7745 111.12V110.79C48.7821 110.371 48.711 109.953 48.5645 109.56C48.446 109.236 48.2621 108.94 48.0245 108.69C47.8065 108.463 47.5398 108.289 47.2445 108.18C46.9407 108.073 46.6214 108.018 46.2995 108.015C45.9774 108.016 45.6579 108.072 45.3545 108.18C45.0591 108.289 44.7923 108.463 44.5745 108.69C44.3367 108.94 44.153 109.236 44.0345 109.56C43.8879 109.953 43.8167 110.371 43.8245 110.79V111.12C43.8161 111.569 43.8872 112.016 44.0345 112.44C44.1494 112.779 44.3333 113.091 44.5745 113.355C44.7869 113.596 45.0545 113.781 45.3545 113.895C45.6579 114.003 45.9774 114.059 46.2995 114.06Z" fill="white"/>
        <path d="M52.6289 115.485V106.59H54.4739V110.16H58.6889V106.59H60.5339V115.485H58.6889V111.735H54.4739V115.485H52.6289Z" fill="white"/>
        <path d="M65.0938 115.485V108.165H62.0938V106.59H69.8189V108.165H66.8189V115.485H65.0938Z" fill="white"/>
        <path d="M75.2491 115.665C74.6693 115.668 74.0926 115.582 73.5391 115.41C73.0186 115.235 72.5425 114.948 72.1441 114.57C71.7262 114.143 71.4041 113.631 71.1991 113.07C70.9468 112.431 70.8244 111.747 70.8391 111.06V110.73C70.8266 110.069 70.9439 109.412 71.1839 108.795C71.3906 108.281 71.7023 107.816 72.0991 107.43C72.476 107.058 72.9325 106.776 73.4339 106.605C73.9598 106.423 74.5127 106.332 75.0691 106.335C75.6385 106.296 76.21 106.373 76.7489 106.561C77.2879 106.749 77.7829 107.045 78.2039 107.43C78.5845 107.852 78.8774 108.344 79.0654 108.88C79.2535 109.416 79.3328 109.983 79.2991 110.55V111.57H72.7141C72.71 111.971 72.7865 112.369 72.9391 112.74C73.0739 113.04 73.2736 113.307 73.5239 113.52C73.7657 113.716 74.0399 113.869 74.3341 113.97C74.6302 114.062 74.9389 114.108 75.2491 114.105C75.7669 114.142 76.2853 114.039 76.7491 113.805C77.0704 113.618 77.3188 113.327 77.4539 112.98H79.1941C79.1197 113.398 78.9616 113.796 78.7291 114.15C78.5095 114.489 78.2237 114.78 77.8891 115.005C77.5381 115.244 77.1467 115.416 76.7341 115.515C76.2485 115.634 75.7486 115.685 75.2491 115.665ZM72.7291 110.175H77.4991C77.4979 109.821 77.4317 109.47 77.3041 109.14C77.189 108.878 77.0144 108.647 76.7941 108.465C76.5686 108.296 76.3147 108.169 76.0441 108.09C75.7453 108.012 75.4378 107.972 75.1291 107.97C74.8238 107.969 74.5204 108.015 74.2291 108.105C73.946 108.183 73.6811 108.316 73.4491 108.495C73.2178 108.68 73.033 108.916 72.9091 109.185C72.7661 109.495 72.7042 109.835 72.7291 110.175Z" fill="white"/>
        <path d="M81.2637 115.485V106.59H83.1085V110.16H87.3085V106.59H89.1537V115.485H87.3085V111.735H83.1085V115.485H81.2637Z" fill="white"/>
        <path d="M93.7285 115.485V108.165H90.7285V106.59H98.4985V108.165H95.4985V115.485H93.7285Z" fill="white"/>
        <path d="M60.94 61.5904V34.4404H31V88.7404H35.845L60.94 61.5904Z" fill="white"/>
        <path d="M65.7849 88.7404L90.8799 61.5904V34.4404H86.0499L60.94 61.5904L60.9398 88.7404H65.7849Z" fill="white"/>
        <path d="M120.82 88.7404V34.4404H115.99L90.8799 61.5904L90.8799 88.7404H120.82Z" fill="white"/>
    </g>
    <defs>
        <clipPath id="clip0_1177_12066">
            <rect width="150" height="150" fill="white" transform="translate(0.5)"/>
        </clipPath>
    </defs>
</svg>
