<svg width="304" height="34" viewBox="0 0 304 34" fill="none" xmlns="http://www.w3.org/2000/svg">
<path d="M96.5208 30.9952V3H113.129C120.941 3 125.621 6.42727 125.621 12.831V12.9474C125.621 19.4675 121.091 23.3456 113.28 23.3456H105.051V30.9952H96.5208ZM105.051 17.1309H112.712C115.693 17.1309 117.013 15.6766 117.013 13.0589V12.9861C117.013 10.8726 115.809 9.25347 112.751 9.25347H105.051V17.1309Z" fill="black"/>
<path d="M147.367 3L137.395 29.0997V3H129.355V31H144.706L154.678 4.90028V31H162.718V3H147.367Z" fill="black"/>
<path d="M76.7269 3L66.7598 29.0997V3H58.72V31H74.0713L84.0384 4.90028V31H92.0781V3H76.7269Z" fill="black"/>
<path d="M15.4629 17V3H0V31H2.50028L15.4629 17Z" fill="black"/>
<path d="M17.9634 31L30.926 17V3H28.4257L15.4631 17V31H17.9634Z" fill="black"/>
<path d="M46.3889 31V3H43.8886L30.926 17V31H46.3889Z" fill="black"/>
<path d="M188.378 3.878V14H186.488V7.658C186.488 7.42 186.492 7.17033 186.502 6.909C186.516 6.64767 186.544 6.37 186.586 6.076C186.492 6.33733 186.39 6.58 186.278 6.804C186.17 7.02333 186.065 7.217 185.963 7.385L182.092 13.419C182.05 13.489 181.998 13.559 181.938 13.629C181.882 13.699 181.819 13.762 181.749 13.818C181.679 13.8693 181.602 13.9137 181.518 13.951C181.434 13.9837 181.347 14 181.259 14H179.845V3.878H181.735V10.22C181.735 10.458 181.728 10.71 181.714 10.976C181.704 11.2373 181.679 11.515 181.637 11.809C181.73 11.5477 181.83 11.305 181.938 11.081C182.05 10.857 182.159 10.661 182.267 10.493L186.131 4.459C186.173 4.389 186.222 4.319 186.278 4.249C186.338 4.179 186.404 4.11833 186.474 4.067C186.544 4.011 186.618 3.96667 186.698 3.934C186.782 3.89667 186.87 3.878 186.964 3.878H188.378ZM196.508 6.818V14H194.779V10.822H191.979V14H190.25V6.818H191.979V9.541H194.779V6.818H196.508ZM203.365 8.337C203.314 8.40233 203.263 8.45367 203.211 8.491C203.165 8.52833 203.095 8.547 203.001 8.547C202.913 8.547 202.826 8.52133 202.742 8.47C202.658 8.414 202.558 8.35333 202.441 8.288C202.325 8.218 202.185 8.15733 202.021 8.106C201.863 8.05 201.664 8.022 201.426 8.022C201.123 8.022 200.857 8.078 200.628 8.19C200.4 8.29733 200.208 8.45367 200.054 8.659C199.905 8.86433 199.793 9.114 199.718 9.408C199.644 9.69733 199.606 10.0263 199.606 10.395C199.606 10.7777 199.646 11.1183 199.725 11.417C199.809 11.7157 199.928 11.9677 200.082 12.173C200.236 12.3737 200.423 12.5277 200.642 12.635C200.862 12.7377 201.109 12.789 201.384 12.789C201.66 12.789 201.881 12.7563 202.049 12.691C202.222 12.621 202.367 12.5463 202.483 12.467C202.6 12.383 202.7 12.3083 202.784 12.243C202.873 12.173 202.971 12.138 203.078 12.138C203.218 12.138 203.323 12.1917 203.393 12.299L203.89 12.929C203.699 13.153 203.491 13.342 203.267 13.496C203.043 13.6453 202.81 13.7667 202.567 13.86C202.329 13.9487 202.082 14.0117 201.825 14.049C201.573 14.0863 201.321 14.105 201.069 14.105C200.626 14.105 200.208 14.0233 199.816 13.86C199.424 13.692 199.081 13.4493 198.787 13.132C198.493 12.8147 198.26 12.4273 198.087 11.97C197.919 11.508 197.835 10.983 197.835 10.395C197.835 9.86767 197.91 9.38 198.059 8.932C198.213 8.47933 198.437 8.08967 198.731 7.763C199.025 7.43167 199.389 7.17267 199.823 6.986C200.257 6.79933 200.757 6.706 201.321 6.706C201.858 6.706 202.327 6.79233 202.728 6.965C203.134 7.13767 203.498 7.385 203.82 7.707L203.365 8.337ZM211.134 8.099H208.572V14H206.843V8.099H204.288V6.818H211.134V8.099ZM218.606 6.818V14H216.877V9.807C216.877 9.69967 216.882 9.583 216.891 9.457C216.905 9.32633 216.921 9.19567 216.94 9.065C216.847 9.27967 216.744 9.46867 216.632 9.632C216.623 9.64133 216.576 9.70667 216.492 9.828C216.408 9.94467 216.298 10.0963 216.163 10.283C216.032 10.4697 215.883 10.682 215.715 10.92C215.547 11.1533 215.377 11.3913 215.204 11.634C214.798 12.208 214.338 12.8567 213.825 13.58C213.76 13.678 213.673 13.7737 213.566 13.867C213.463 13.9603 213.344 14.007 213.209 14.007H212.152V6.825H213.881V11.018C213.881 11.1253 213.874 11.2443 213.86 11.375C213.851 11.501 213.837 11.6293 213.818 11.76C213.921 11.5313 214.023 11.3423 214.126 11.193C214.131 11.1837 214.175 11.1207 214.259 11.004C214.343 10.8873 214.45 10.7357 214.581 10.549C214.716 10.3623 214.868 10.1523 215.036 9.919C215.204 9.681 215.374 9.43833 215.547 9.191C215.953 8.617 216.415 7.96833 216.933 7.245C216.998 7.14233 217.085 7.04667 217.192 6.958C217.299 6.86467 217.421 6.818 217.556 6.818H218.606ZM226.474 8.099H223.912V14H222.183V8.099H219.628V6.818H226.474V8.099ZM234.016 6.818L230.103 15.974C230.051 16.0953 229.984 16.1863 229.9 16.247C229.82 16.3123 229.697 16.345 229.529 16.345H228.241L229.585 13.461L226.68 6.818H228.199C228.334 6.818 228.439 6.85067 228.514 6.916C228.593 6.98133 228.651 7.056 228.689 7.14L230.215 10.864C230.266 10.99 230.308 11.116 230.341 11.242C230.378 11.368 230.413 11.4963 230.446 11.627C230.488 11.4963 230.53 11.368 230.572 11.242C230.614 11.1113 230.66 10.983 230.712 10.857L232.154 7.14C232.191 7.04667 232.252 6.96967 232.336 6.909C232.424 6.84833 232.522 6.818 232.63 6.818H234.016ZM241.035 8.099H238.473V14H236.744V8.099H234.189V6.818H241.035V8.099ZM247.186 12.138C247.382 12.376 247.594 12.544 247.823 12.642C248.056 12.74 248.308 12.789 248.579 12.789C248.84 12.789 249.076 12.74 249.286 12.642C249.496 12.544 249.673 12.3947 249.818 12.194C249.967 11.9933 250.081 11.7413 250.161 11.438C250.24 11.13 250.28 10.7683 250.28 10.353C250.28 9.933 250.245 9.57833 250.175 9.289C250.109 8.995 250.014 8.757 249.888 8.575C249.762 8.393 249.608 8.26 249.426 8.176C249.248 8.092 249.045 8.05 248.817 8.05C248.457 8.05 248.152 8.127 247.9 8.281C247.648 8.43033 247.41 8.64267 247.186 8.918V12.138ZM247.095 7.798C247.389 7.46667 247.722 7.19833 248.096 6.993C248.469 6.78767 248.908 6.685 249.412 6.685C249.804 6.685 250.161 6.76667 250.483 6.93C250.809 7.09333 251.089 7.33133 251.323 7.644C251.561 7.952 251.743 8.33467 251.869 8.792C251.999 9.24467 252.065 9.765 252.065 10.353C252.065 10.8897 251.992 11.3867 251.848 11.844C251.703 12.3013 251.495 12.698 251.225 13.034C250.959 13.37 250.634 13.6337 250.252 13.825C249.874 14.0117 249.449 14.105 248.978 14.105C248.576 14.105 248.233 14.0443 247.949 13.923C247.664 13.797 247.41 13.6243 247.186 13.405V16.345H245.457V6.818H246.514C246.738 6.818 246.885 6.923 246.955 7.133L247.095 7.798ZM257.194 10.934C256.695 10.9573 256.275 11.0017 255.934 11.067C255.593 11.1277 255.32 11.207 255.115 11.305C254.91 11.403 254.763 11.5173 254.674 11.648C254.585 11.7787 254.541 11.921 254.541 12.075C254.541 12.3783 254.63 12.5953 254.807 12.726C254.989 12.8567 255.225 12.922 255.514 12.922C255.869 12.922 256.174 12.859 256.431 12.733C256.692 12.6023 256.947 12.4063 257.194 12.145V10.934ZM253.232 7.819C254.058 7.063 255.052 6.685 256.214 6.685C256.634 6.685 257.01 6.755 257.341 6.895C257.672 7.03033 257.952 7.22167 258.181 7.469C258.41 7.71167 258.582 8.00333 258.699 8.344C258.82 8.68467 258.881 9.058 258.881 9.464V14H258.097C257.934 14 257.808 13.9767 257.719 13.93C257.63 13.8787 257.56 13.7783 257.509 13.629L257.355 13.111C257.173 13.2743 256.996 13.419 256.823 13.545C256.65 13.6663 256.471 13.769 256.284 13.853C256.097 13.937 255.897 14 255.682 14.042C255.472 14.0887 255.239 14.112 254.982 14.112C254.679 14.112 254.399 14.0723 254.142 13.993C253.885 13.909 253.664 13.7853 253.477 13.622C253.29 13.4587 253.146 13.2557 253.043 13.013C252.94 12.7703 252.889 12.488 252.889 12.166C252.889 11.984 252.919 11.8043 252.98 11.627C253.041 11.445 253.139 11.2723 253.274 11.109C253.414 10.9457 253.594 10.7917 253.813 10.647C254.032 10.5023 254.301 10.3763 254.618 10.269C254.94 10.1617 255.313 10.0753 255.738 10.01C256.163 9.94 256.648 9.898 257.194 9.884V9.464C257.194 8.98333 257.091 8.62867 256.886 8.4C256.681 8.16667 256.384 8.05 255.997 8.05C255.717 8.05 255.484 8.08267 255.297 8.148C255.115 8.21333 254.954 8.288 254.814 8.372C254.674 8.45133 254.546 8.52367 254.429 8.589C254.317 8.65433 254.191 8.687 254.051 8.687C253.93 8.687 253.827 8.65667 253.743 8.596C253.659 8.53067 253.591 8.456 253.54 8.372L253.232 7.819ZM260.089 7.595C260.36 7.33367 260.696 7.12133 261.097 6.958C261.499 6.79 261.979 6.706 262.539 6.706C262.983 6.706 263.377 6.75967 263.722 6.867C264.068 6.96967 264.357 7.112 264.59 7.294C264.828 7.47133 265.008 7.67667 265.129 7.91C265.255 8.13867 265.318 8.379 265.318 8.631C265.318 8.76633 265.297 8.90867 265.255 9.058C265.218 9.20267 265.153 9.345 265.059 9.485C264.971 9.625 264.852 9.75567 264.702 9.877C264.553 9.99367 264.369 10.094 264.149 10.178C264.541 10.3273 264.856 10.5467 265.094 10.836C265.337 11.1253 265.458 11.4823 265.458 11.907C265.458 12.257 265.377 12.5673 265.213 12.838C265.055 13.1087 264.842 13.3397 264.576 13.531C264.31 13.7177 264.005 13.86 263.659 13.958C263.319 14.056 262.966 14.105 262.602 14.105C262.397 14.105 262.175 14.0863 261.937 14.049C261.704 14.0117 261.468 13.9487 261.23 13.86C260.992 13.7667 260.759 13.6453 260.53 13.496C260.302 13.342 260.094 13.153 259.907 12.929L260.404 12.299C260.474 12.1917 260.579 12.138 260.719 12.138C260.827 12.138 260.929 12.173 261.027 12.243C261.125 12.3083 261.237 12.383 261.363 12.467C261.494 12.5463 261.648 12.621 261.825 12.691C262.003 12.7563 262.224 12.789 262.49 12.789C262.924 12.789 263.253 12.691 263.477 12.495C263.701 12.299 263.813 12.054 263.813 11.76C263.813 11.4707 263.697 11.2443 263.463 11.081C263.235 10.9177 262.861 10.836 262.343 10.836H261.531V9.709H262.343C262.796 9.709 263.144 9.62967 263.386 9.471C263.629 9.31233 263.75 9.10233 263.75 8.841C263.75 8.603 263.643 8.407 263.428 8.253C263.218 8.099 262.906 8.022 262.49 8.022C262.243 8.022 262.033 8.04767 261.86 8.099C261.688 8.15033 261.538 8.20633 261.412 8.267C261.291 8.323 261.188 8.37667 261.104 8.428C261.02 8.47933 260.941 8.505 260.866 8.505C260.787 8.505 260.719 8.491 260.663 8.463C260.607 8.43033 260.547 8.36267 260.481 8.26L260.089 7.595ZM269.745 12.817C270.109 12.817 270.396 12.7283 270.606 12.551C270.821 12.3737 270.928 12.131 270.928 11.823C270.928 11.6923 270.909 11.571 270.872 11.459C270.839 11.3423 270.779 11.242 270.69 11.158C270.601 11.074 270.48 11.0087 270.326 10.962C270.177 10.9153 269.985 10.892 269.752 10.892H268.457V12.817H269.745ZM268.457 7.945V9.828H269.591C269.759 9.828 269.913 9.80467 270.053 9.758C270.193 9.70667 270.314 9.63667 270.417 9.548C270.52 9.45467 270.599 9.34733 270.655 9.226C270.711 9.1 270.739 8.96233 270.739 8.813C270.739 8.70567 270.72 8.60067 270.683 8.498C270.646 8.39067 270.583 8.29733 270.494 8.218C270.405 8.134 270.286 8.06867 270.137 8.022C269.992 7.97067 269.81 7.945 269.591 7.945H268.457ZM269.64 6.818C270.093 6.818 270.482 6.86233 270.809 6.951C271.14 7.03967 271.413 7.161 271.628 7.315C271.843 7.469 272.001 7.65333 272.104 7.868C272.207 8.078 272.258 8.30667 272.258 8.554C272.258 8.708 272.237 8.869 272.195 9.037C272.158 9.20033 272.088 9.359 271.985 9.513C271.887 9.667 271.752 9.807 271.579 9.933C271.406 10.059 271.187 10.157 270.921 10.227C271.159 10.2783 271.376 10.3507 271.572 10.444C271.768 10.5327 271.936 10.647 272.076 10.787C272.216 10.9223 272.323 11.0833 272.398 11.27C272.477 11.452 272.517 11.6573 272.517 11.886C272.517 12.25 272.44 12.565 272.286 12.831C272.137 13.097 271.934 13.3163 271.677 13.489C271.425 13.6617 271.131 13.79 270.795 13.874C270.464 13.958 270.116 14 269.752 14H266.812V6.818H269.64ZM280.307 6.818V14H278.578V9.807C278.578 9.69967 278.583 9.583 278.592 9.457C278.606 9.32633 278.622 9.19567 278.641 9.065C278.548 9.27967 278.445 9.46867 278.333 9.632C278.324 9.64133 278.277 9.70667 278.193 9.828C278.109 9.94467 277.999 10.0963 277.864 10.283C277.733 10.4697 277.584 10.682 277.416 10.92C277.248 11.1533 277.078 11.3913 276.905 11.634C276.499 12.208 276.039 12.8567 275.526 13.58C275.461 13.678 275.374 13.7737 275.267 13.867C275.164 13.9603 275.045 14.007 274.91 14.007H273.853V6.825H275.582V11.018C275.582 11.1253 275.575 11.2443 275.561 11.375C275.552 11.501 275.538 11.6293 275.519 11.76C275.622 11.5313 275.724 11.3423 275.827 11.193C275.832 11.1837 275.876 11.1207 275.96 11.004C276.044 10.8873 276.151 10.7357 276.282 10.549C276.417 10.3623 276.569 10.1523 276.737 9.919C276.905 9.681 277.075 9.43833 277.248 9.191C277.654 8.617 278.116 7.96833 278.634 7.245C278.699 7.14233 278.786 7.04667 278.893 6.958C279 6.86467 279.122 6.818 279.257 6.818H280.307ZM288.175 8.099H285.613V14H283.884V8.099H281.329V6.818H288.175V8.099ZM295.647 6.818V14H293.918V9.807C293.918 9.69967 293.923 9.583 293.932 9.457C293.946 9.32633 293.962 9.19567 293.981 9.065C293.888 9.27967 293.785 9.46867 293.673 9.632C293.664 9.64133 293.617 9.70667 293.533 9.828C293.449 9.94467 293.339 10.0963 293.204 10.283C293.073 10.4697 292.924 10.682 292.756 10.92C292.588 11.1533 292.418 11.3913 292.245 11.634C291.839 12.208 291.379 12.8567 290.866 13.58C290.801 13.678 290.714 13.7737 290.607 13.867C290.504 13.9603 290.385 14.007 290.25 14.007H289.193V6.825H290.922V11.018C290.922 11.1253 290.915 11.2443 290.901 11.375C290.892 11.501 290.878 11.6293 290.859 11.76C290.962 11.5313 291.064 11.3423 291.167 11.193C291.172 11.1837 291.216 11.1207 291.3 11.004C291.384 10.8873 291.491 10.7357 291.622 10.549C291.757 10.3623 291.909 10.1523 292.077 9.919C292.245 9.681 292.415 9.43833 292.588 9.191C292.994 8.617 293.456 7.96833 293.974 7.245C294.039 7.14233 294.126 7.04667 294.233 6.958C294.34 6.86467 294.462 6.818 294.597 6.818H295.647ZM301.1 10.052V7.945H300.162C299.943 7.945 299.761 7.97767 299.616 8.043C299.471 8.10367 299.352 8.18533 299.259 8.288C299.17 8.386 299.107 8.498 299.07 8.624C299.033 8.75 299.014 8.87367 299.014 8.995C299.014 9.32633 299.124 9.58533 299.343 9.772C299.567 9.95867 299.866 10.052 300.239 10.052H301.1ZM302.745 6.818V14H301.1V11.116H300.799C300.659 11.116 300.542 11.13 300.449 11.158C300.36 11.1813 300.283 11.2163 300.218 11.263C300.157 11.305 300.104 11.3587 300.057 11.424C300.015 11.4893 299.971 11.5617 299.924 11.641L298.776 13.405C298.72 13.503 298.659 13.5893 298.594 13.664C298.533 13.7387 298.461 13.8017 298.377 13.853C298.298 13.8997 298.202 13.937 298.09 13.965C297.983 13.9883 297.852 14 297.698 14H296.501L298.314 11.466C298.412 11.2887 298.526 11.1463 298.657 11.039C298.788 10.9317 298.942 10.8453 299.119 10.78C298.783 10.7193 298.496 10.626 298.258 10.5C298.025 10.3693 297.836 10.22 297.691 10.052C297.546 9.87933 297.441 9.695 297.376 9.499C297.311 9.303 297.278 9.10933 297.278 8.918C297.278 8.652 297.329 8.393 297.432 8.141C297.539 7.889 297.707 7.665 297.936 7.469C298.165 7.273 298.459 7.11667 298.818 7C299.177 6.87867 299.609 6.818 300.113 6.818H302.745ZM186.026 23.818V31H184.297V26.807C184.297 26.6997 184.301 26.583 184.311 26.457C184.325 26.3263 184.341 26.1957 184.36 26.065C184.266 26.2797 184.164 26.4687 184.052 26.632C184.042 26.6413 183.996 26.7067 183.912 26.828C183.828 26.9447 183.718 27.0963 183.583 27.283C183.452 27.4697 183.303 27.682 183.135 27.92C182.967 28.1533 182.796 28.3913 182.624 28.634C182.218 29.208 181.758 29.8567 181.245 30.58C181.179 30.678 181.093 30.7737 180.986 30.867C180.883 30.9603 180.764 31.007 180.629 31.007H179.572V23.825H181.301V28.018C181.301 28.1253 181.294 28.2443 181.28 28.375C181.27 28.501 181.256 28.6293 181.238 28.76C181.34 28.5313 181.443 28.3423 181.546 28.193C181.55 28.1837 181.595 28.1207 181.679 28.004C181.763 27.8873 181.87 27.7357 182.001 27.549C182.136 27.3623 182.288 27.1523 182.456 26.919C182.624 26.681 182.794 26.4383 182.967 26.191C183.373 25.617 183.835 24.9683 184.353 24.245C184.418 24.1423 184.504 24.0467 184.612 23.958C184.719 23.8647 184.84 23.818 184.976 23.818H186.026ZM193.992 23.818V31H192.263V27.822H189.463V31H187.734V23.818H189.463V26.541H192.263V23.818H193.992ZM201.865 25.099H199.303V31H197.574V25.099H195.019V23.818H201.865V25.099ZM207.304 26.583C207.304 26.359 207.272 26.149 207.206 25.953C207.146 25.7523 207.052 25.5773 206.926 25.428C206.8 25.2787 206.639 25.162 206.443 25.078C206.252 24.9893 206.028 24.945 205.771 24.945C205.272 24.945 204.878 25.0873 204.588 25.372C204.304 25.6567 204.122 26.0603 204.042 26.583H207.304ZM204.007 27.626C204.035 27.9947 204.101 28.3143 204.203 28.585C204.306 28.851 204.441 29.0727 204.609 29.25C204.777 29.4227 204.976 29.5533 205.204 29.642C205.438 29.726 205.694 29.768 205.974 29.768C206.254 29.768 206.495 29.7353 206.695 29.67C206.901 29.6047 207.078 29.5323 207.227 29.453C207.381 29.3737 207.514 29.3013 207.626 29.236C207.743 29.1707 207.855 29.138 207.962 29.138C208.107 29.138 208.214 29.1917 208.284 29.299L208.781 29.929C208.59 30.153 208.375 30.342 208.137 30.496C207.899 30.6453 207.65 30.7667 207.388 30.86C207.132 30.9487 206.868 31.0117 206.597 31.049C206.331 31.0863 206.072 31.105 205.82 31.105C205.321 31.105 204.857 31.0233 204.427 30.86C203.998 30.692 203.625 30.447 203.307 30.125C202.99 29.7983 202.74 29.397 202.558 28.921C202.376 28.4403 202.285 27.885 202.285 27.255C202.285 26.765 202.365 26.3053 202.523 25.876C202.682 25.442 202.908 25.0663 203.202 24.749C203.501 24.427 203.863 24.1727 204.287 23.986C204.717 23.7993 205.2 23.706 205.736 23.706C206.189 23.706 206.607 23.7783 206.989 23.923C207.372 24.0677 207.701 24.28 207.976 24.56C208.252 24.8353 208.466 25.176 208.62 25.582C208.779 25.9833 208.858 26.443 208.858 26.961C208.858 27.2223 208.83 27.3997 208.774 27.493C208.718 27.5817 208.611 27.626 208.452 27.626H204.007ZM211.885 29.138C212.081 29.376 212.293 29.544 212.522 29.642C212.755 29.74 213.007 29.789 213.278 29.789C213.539 29.789 213.775 29.74 213.985 29.642C214.195 29.544 214.372 29.3947 214.517 29.194C214.666 28.9933 214.78 28.7413 214.86 28.438C214.939 28.13 214.979 27.7683 214.979 27.353C214.979 26.933 214.944 26.5783 214.874 26.289C214.808 25.995 214.713 25.757 214.587 25.575C214.461 25.393 214.307 25.26 214.125 25.176C213.947 25.092 213.744 25.05 213.516 25.05C213.156 25.05 212.851 25.127 212.599 25.281C212.347 25.4303 212.109 25.6427 211.885 25.918V29.138ZM211.794 24.798C212.088 24.4667 212.421 24.1983 212.795 23.993C213.168 23.7877 213.607 23.685 214.111 23.685C214.503 23.685 214.86 23.7667 215.182 23.93C215.508 24.0933 215.788 24.3313 216.022 24.644C216.26 24.952 216.442 25.3347 216.568 25.792C216.698 26.2447 216.764 26.765 216.764 27.353C216.764 27.8897 216.691 28.3867 216.547 28.844C216.402 29.3013 216.194 29.698 215.924 30.034C215.658 30.37 215.333 30.6337 214.951 30.825C214.573 31.0117 214.148 31.105 213.677 31.105C213.275 31.105 212.932 31.0443 212.648 30.923C212.363 30.797 212.109 30.6243 211.885 30.405V33.345H210.156V23.818H211.213C211.437 23.818 211.584 23.923 211.654 24.133L211.794 24.798ZM224.357 23.818V31H222.628V27.822H219.828V31H218.099V23.818H219.828V26.541H222.628V23.818H224.357ZM230.697 26.583C230.697 26.359 230.664 26.149 230.599 25.953C230.538 25.7523 230.445 25.5773 230.319 25.428C230.193 25.2787 230.032 25.162 229.836 25.078C229.644 24.9893 229.42 24.945 229.164 24.945C228.664 24.945 228.27 25.0873 227.981 25.372C227.696 25.6567 227.514 26.0603 227.435 26.583H230.697ZM227.4 27.626C227.428 27.9947 227.493 28.3143 227.596 28.585C227.698 28.851 227.834 29.0727 228.002 29.25C228.17 29.4227 228.368 29.5533 228.597 29.642C228.83 29.726 229.087 29.768 229.367 29.768C229.647 29.768 229.887 29.7353 230.088 29.67C230.293 29.6047 230.47 29.5323 230.62 29.453C230.774 29.3737 230.907 29.3013 231.019 29.236C231.135 29.1707 231.247 29.138 231.355 29.138C231.499 29.138 231.607 29.1917 231.677 29.299L232.174 29.929C231.982 30.153 231.768 30.342 231.53 30.496C231.292 30.6453 231.042 30.7667 230.781 30.86C230.524 30.9487 230.26 31.0117 229.99 31.049C229.724 31.0863 229.465 31.105 229.213 31.105C228.713 31.105 228.249 31.0233 227.82 30.86C227.39 30.692 227.017 30.447 226.7 30.125C226.382 29.7983 226.133 29.397 225.951 28.921C225.769 28.4403 225.678 27.885 225.678 27.255C225.678 26.765 225.757 26.3053 225.916 25.876C226.074 25.442 226.301 25.0663 226.595 24.749C226.893 24.427 227.255 24.1727 227.68 23.986C228.109 23.7993 228.592 23.706 229.129 23.706C229.581 23.706 229.999 23.7783 230.382 23.923C230.764 24.0677 231.093 24.28 231.369 24.56C231.644 24.8353 231.859 25.176 232.013 25.582C232.171 25.9833 232.251 26.443 232.251 26.961C232.251 27.2223 232.223 27.3997 232.167 27.493C232.111 27.5817 232.003 27.626 231.845 27.626H227.4ZM239.654 25.099H237.092V31H235.363V25.099H232.808V23.818H239.654V25.099ZM244.424 27.934C243.925 27.9573 243.505 28.0017 243.164 28.067C242.824 28.1277 242.551 28.207 242.345 28.305C242.14 28.403 241.993 28.5173 241.904 28.648C241.816 28.7787 241.771 28.921 241.771 29.075C241.771 29.3783 241.86 29.5953 242.037 29.726C242.219 29.8567 242.455 29.922 242.744 29.922C243.099 29.922 243.405 29.859 243.661 29.733C243.923 29.6023 244.177 29.4063 244.424 29.145V27.934ZM240.462 24.819C241.288 24.063 242.282 23.685 243.444 23.685C243.864 23.685 244.24 23.755 244.571 23.895C244.903 24.0303 245.183 24.2217 245.411 24.469C245.64 24.7117 245.813 25.0033 245.929 25.344C246.051 25.6847 246.111 26.058 246.111 26.464V31H245.327C245.164 31 245.038 30.9767 244.949 30.93C244.861 30.8787 244.791 30.7783 244.739 30.629L244.585 30.111C244.403 30.2743 244.226 30.419 244.053 30.545C243.881 30.6663 243.701 30.769 243.514 30.853C243.328 30.937 243.127 31 242.912 31.042C242.702 31.0887 242.469 31.112 242.212 31.112C241.909 31.112 241.629 31.0723 241.372 30.993C241.116 30.909 240.894 30.7853 240.707 30.622C240.521 30.4587 240.376 30.2557 240.273 30.013C240.171 29.7703 240.119 29.488 240.119 29.166C240.119 28.984 240.15 28.8043 240.21 28.627C240.271 28.445 240.369 28.2723 240.504 28.109C240.644 27.9457 240.824 27.7917 241.043 27.647C241.263 27.5023 241.531 27.3763 241.848 27.269C242.17 27.1617 242.544 27.0753 242.968 27.01C243.393 26.94 243.878 26.898 244.424 26.884V26.464C244.424 25.9833 244.322 25.6287 244.116 25.4C243.911 25.1667 243.615 25.05 243.227 25.05C242.947 25.05 242.714 25.0827 242.527 25.148C242.345 25.2133 242.184 25.288 242.044 25.372C241.904 25.4513 241.776 25.5237 241.659 25.589C241.547 25.6543 241.421 25.687 241.281 25.687C241.16 25.687 241.057 25.6567 240.973 25.596C240.889 25.5307 240.822 25.456 240.77 25.372L240.462 24.819Z" fill="#333333"/>
</svg>
