<svg width="24" height="24" viewBox="0 0 24 24" fill="none" xmlns="http://www.w3.org/2000/svg">
    <mask id="mask0_943_4959" style="mask-type:alpha" maskUnits="userSpaceOnUse" x="0" y="0" width="24" height="24">
        <rect width="24" height="24" fill="#D9D9D9"/>
    </mask>
    <g mask="url(#mask0_943_4959)">
        <path d="M13 13.5H14V10.5H17V9.5H14V6.5H13V9.5H10V10.5H13V13.5ZM8.125 17C7.65833 17 7.271 16.846 6.963 16.538C6.65433 16.2293 6.5 15.8417 6.5 15.375V4.625C6.5 4.15833 6.65433 3.77067 6.963 3.462C7.271 3.154 7.65833 3 8.125 3H18.875C19.3417 3 19.7293 3.154 20.038 3.462C20.346 3.77067 20.5 4.15833 20.5 4.625V15.375C20.5 15.8417 20.346 16.2293 20.038 16.538C19.7293 16.846 19.3417 17 18.875 17H8.125ZM8.125 16H18.875C19.0417 16 19.1873 15.9373 19.312 15.812C19.4373 15.6873 19.5 15.5417 19.5 15.375V4.625C19.5 4.45833 19.4373 4.31267 19.312 4.188C19.1873 4.06267 19.0417 4 18.875 4H8.125C7.95833 4 7.81267 4.06267 7.688 4.188C7.56267 4.31267 7.5 4.45833 7.5 4.625V15.375C7.5 15.5417 7.56267 15.6873 7.688 15.812C7.81267 15.9373 7.95833 16 8.125 16ZM5.125 20C4.65833 20 4.27067 19.846 3.962 19.538C3.654 19.2293 3.5 18.8417 3.5 18.375V6.625H4.5V18.375C4.5 18.5417 4.56267 18.6873 4.688 18.812C4.81267 18.9373 4.95833 19 5.125 19H16.875V20H5.125Z" fill="#1C1B1F"/>
    </g>
</svg>
