<svg width="24" height="24" viewBox="0 0 24 24" fill="none" xmlns="http://www.w3.org/2000/svg">
    <mask id="mask0_278_3601" style="mask-type:alpha" maskUnits="userSpaceOnUse" x="0" y="0" width="24" height="24">
        <rect width="24" height="24" />
    </mask>
    <g mask="url(#mask0_278_3601)">
        <path d="M6.625 18.9999C6.15833 18.9999 5.771 18.8459 5.463 18.5379C5.15433 18.2292 5 17.8416 5 17.3749V14.9999H6V17.3749C6 17.5416 6.06267 17.6872 6.188 17.8119C6.31267 17.9372 6.45833 17.9999 6.625 17.9999H17.375C17.5417 17.9999 17.6873 17.9372 17.812 17.8119C17.9373 17.6872 18 17.5416 18 17.3749V14.9999H19V17.3749C19 17.8416 18.846 18.2292 18.538 18.5379C18.2293 18.8459 17.8417 18.9999 17.375 18.9999H6.625ZM12 15.2249L8.45 11.6999L9.175 10.9749L11.5 13.2999V4.6499H12.5V13.2999L14.825 10.9749L15.55 11.6999L12 15.2249Z" />
    </g>
</svg>
