<svg width="24" height="24" viewBox="0 0 24 24" fill="none" xmlns="http://www.w3.org/2000/svg">
    <mask id="mask0_195_280" style="mask-type:alpha" maskUnits="userSpaceOnUse" x="0" y="0" width="24" height="24">
        <rect width="24" height="24" />
    </mask>
    <g mask="url(#mask0_195_280)">
        <path d="M15.45 12.65L14.65 11.85C14.8 10.9833 14.5543 10.229 13.913 9.58695C13.271 8.94562 12.5167 8.69995 11.65 8.84995L10.85 8.04995C11.0167 7.98328 11.1917 7.93328 11.375 7.89995C11.5583 7.86662 11.7667 7.84995 12 7.84995C13.0167 7.84995 13.8793 8.20395 14.588 8.91195C15.296 9.62062 15.65 10.4833 15.65 11.5C15.65 11.7333 15.6333 11.9456 15.6 12.137C15.5667 12.329 15.5167 12.5 15.45 12.65ZM18.6 15.725L17.85 15.05C18.4833 14.5666 19.046 14.0373 19.538 13.462C20.0293 12.8873 20.45 12.2333 20.8 11.5C19.9667 9.81662 18.7707 8.47895 17.212 7.48695C15.654 6.49562 13.9167 5.99995 12 5.99995C11.5167 5.99995 11.0417 6.03328 10.575 6.09995C10.1083 6.16662 9.65001 6.26662 9.20001 6.39995L8.42501 5.62495C9.00835 5.40828 9.60001 5.24995 10.2 5.14995C10.8 5.04995 11.4 4.99995 12 4.99995C14.1667 4.99995 16.15 5.59562 17.95 6.78695C19.75 7.97895 21.075 9.54995 21.925 11.5C21.5583 12.3 21.104 13.054 20.562 13.762C20.0207 14.4706 19.3667 15.125 18.6 15.725ZM19.725 21.15L15.825 17.25C15.3917 17.45 14.846 17.625 14.188 17.775C13.5293 17.925 12.8 18 12 18C9.81668 18 7.83335 17.404 6.05001 16.212C4.26668 15.0206 2.94168 13.45 2.07501 11.5C2.45835 10.6166 2.97101 9.78728 3.61301 9.01195C4.25435 8.23728 4.93335 7.59162 5.65001 7.07495L2.85001 4.27495L3.57501 3.57495L20.425 20.4249L19.725 21.15ZM6.35001 7.77495C5.78335 8.19162 5.20001 8.73328 4.60001 9.39995C4.00001 10.0666 3.53335 10.7666 3.20001 11.5C4.03335 13.1833 5.22901 14.5206 6.78701 15.512C8.34568 16.504 10.0833 17 12 17C12.5833 17 13.1667 16.9456 13.75 16.837C14.3333 16.729 14.775 16.6166 15.075 16.5L13.425 14.85C13.275 14.9333 13.0583 15.004 12.775 15.062C12.4917 15.1206 12.2333 15.15 12 15.15C10.9833 15.15 10.121 14.7956 9.41301 14.087C8.70435 13.379 8.35001 12.5166 8.35001 11.5C8.35001 11.2833 8.37935 11.0373 8.43801 10.762C8.49601 10.4873 8.56668 10.2583 8.65001 10.075L6.35001 7.77495Z" />
    </g>
</svg>