<svg width="24" height="24" viewBox="0 0 24 24" fill="none" xmlns="http://www.w3.org/2000/svg">
<mask id="mask0_551_1527" style="mask-type:alpha" maskUnits="userSpaceOnUse" x="0" y="0" width="24" height="24">
<rect width="24" height="24" fill="#D9D9D9"/>
</mask>
<g mask="url(#mask0_551_1527)">
<path d="M11.7 19.9496C11.8333 19.9496 11.9667 19.9203 12.1 19.8616C12.2333 19.8036 12.3417 19.7329 12.425 19.6496L20.225 11.8496C20.475 11.5996 20.6707 11.3413 20.812 11.0746C20.954 10.8079 21.025 10.5163 21.025 10.1996C21.025 9.88294 20.954 9.57461 20.812 9.27461C20.6707 8.97461 20.475 8.69961 20.225 8.44961L16.475 4.69961C16.225 4.44961 15.971 4.26628 15.713 4.14961C15.4543 4.03294 15.1667 3.97461 14.85 3.97461C14.5333 3.97461 14.2417 4.03294 13.975 4.14961C13.7083 4.26628 13.4583 4.44961 13.225 4.69961L12.35 5.57461L14.2 7.42461C14.4 7.62461 14.5457 7.84961 14.637 8.09961C14.729 8.34961 14.775 8.59961 14.775 8.84961C14.775 9.38294 14.6083 9.81628 14.275 10.1496C13.9417 10.4829 13.5083 10.6496 12.975 10.6496C12.725 10.6496 12.4793 10.6119 12.238 10.5366C11.996 10.4619 11.775 10.3246 11.575 10.1246L9.65 8.22461L5.35 12.5496C5.25 12.6496 5.175 12.7619 5.125 12.8866C5.075 13.0119 5.05 13.1413 5.05 13.2746C5.05 13.5079 5.125 13.7039 5.275 13.8626C5.425 14.0206 5.61667 14.0996 5.85 14.0996C5.98333 14.0996 6.11667 14.0703 6.25 14.0116C6.38333 13.9536 6.49167 13.8829 6.575 13.7996L9.75 10.6246L10.45 11.3246L7.3 14.4996C7.2 14.5996 7.125 14.7123 7.075 14.8376C7.025 14.9623 7 15.0913 7 15.2246C7 15.4579 7.07933 15.6536 7.238 15.8116C7.396 15.9703 7.58333 16.0496 7.8 16.0496C7.93333 16.0496 8.06667 16.0163 8.2 15.9496C8.33333 15.8829 8.44167 15.8079 8.525 15.7246L11.925 12.3496L12.65 13.0496L9.25 16.4496C9.16667 16.5329 9.096 16.6413 9.038 16.7746C8.97933 16.9079 8.95 17.0413 8.95 17.1746C8.95 17.4079 9.02933 17.6036 9.188 17.7616C9.346 17.9203 9.53333 17.9996 9.75 17.9996C9.88333 17.9996 10.0127 17.9746 10.138 17.9246C10.2627 17.8746 10.375 17.7913 10.475 17.6746L13.875 14.2996L14.6 14.9996L11.2 18.3996C11.1 18.4996 11.025 18.6206 10.975 18.7626C10.925 18.9039 10.9 19.0329 10.9 19.1496C10.9 19.3829 10.979 19.5746 11.137 19.7246C11.2957 19.8746 11.4833 19.9496 11.7 19.9496ZM11.7 20.9496C11.1833 20.9496 10.7417 20.7619 10.375 20.3866C10.0083 20.0119 9.85 19.5413 9.9 18.9746C9.33333 18.9913 8.86267 18.8246 8.488 18.4746C8.11267 18.1246 7.93333 17.6413 7.95 17.0246C7.33333 17.0413 6.846 16.8703 6.488 16.5116C6.12933 16.1536 5.96667 15.6746 6 15.0746C5.43333 15.0913 4.96667 14.9373 4.6 14.6126C4.23333 14.2873 4.05 13.8413 4.05 13.2746C4.05 13.0246 4.096 12.7703 4.188 12.5116C4.27933 12.2536 4.425 12.0246 4.625 11.8246L9.65 6.79961L12.25 9.39961C12.3333 9.48294 12.4373 9.55361 12.562 9.61161C12.6873 9.67028 12.825 9.69961 12.975 9.69961C13.1917 9.69961 13.3833 9.62461 13.55 9.47461C13.7167 9.32461 13.8 9.12461 13.8 8.87461C13.8 8.72461 13.771 8.58694 13.713 8.46161C13.6543 8.33694 13.575 8.23294 13.475 8.14961L10.05 4.69961C9.8 4.44961 9.54167 4.26628 9.275 4.14961C9.00833 4.03294 8.71667 3.97461 8.4 3.97461C8.08333 3.97461 7.796 4.03294 7.538 4.14961C7.27933 4.26628 7.025 4.44961 6.775 4.69961L3.725 7.74961C3.525 7.96628 3.35833 8.22461 3.225 8.52461C3.09167 8.82461 3.01667 9.13294 3 9.44961C3 9.66628 3.02067 9.87861 3.062 10.0866C3.104 10.2953 3.175 10.4913 3.275 10.6746L2.525 11.4496C2.35833 11.1663 2.22933 10.8536 2.138 10.5116C2.046 10.1703 2 9.81628 2 9.44961C2 8.98294 2.08767 8.54528 2.263 8.13661C2.43767 7.72861 2.69167 7.35794 3.025 7.02461L6.05 3.99961C6.4 3.64961 6.76667 3.39128 7.15 3.22461C7.53333 3.05794 7.95833 2.97461 8.425 2.97461C8.875 2.97461 9.29167 3.05794 9.675 3.22461C10.0583 3.39128 10.4167 3.64961 10.75 3.99961L11.625 4.87461L12.5 3.99961C12.85 3.64961 13.2167 3.39128 13.6 3.22461C13.9833 3.05794 14.4 2.97461 14.85 2.97461C15.3 2.97461 15.721 3.05794 16.113 3.22461C16.5043 3.39128 16.875 3.64961 17.225 3.99961L20.95 7.72461C21.2833 8.07461 21.546 8.46194 21.738 8.88661C21.9293 9.31194 22.025 9.74961 22.025 10.1996C22.025 10.6663 21.9293 11.0913 21.738 11.4746C21.546 11.8579 21.2833 12.2163 20.95 12.5496L13.15 20.3496C12.9333 20.5496 12.7043 20.6996 12.463 20.7996C12.221 20.8996 11.9667 20.9496 11.7 20.9496Z" />
</g>
</svg>
