<svg width="24" height="24" viewBox="0 0 24 24" fill="none" xmlns="http://www.w3.org/2000/svg">
    <mask id="mask0_551_1522" style="mask-type:alpha" maskUnits="userSpaceOnUse" x="0" y="0" width="24" height="24">
        <rect width="24" height="24" fill="#D9D9D9" />
    </mask>
    <g mask="url(#mask0_551_1522)">
        <path d="M8.125 16.55C8.34167 16.55 8.521 16.475 8.663 16.325C8.80433 16.175 8.875 15.9917 8.875 15.775C8.875 15.5583 8.80433 15.375 8.663 15.225C8.521 15.075 8.34167 15 8.125 15C7.89167 15 7.704 15.075 7.562 15.225C7.42067 15.375 7.35 15.5583 7.35 15.775C7.35 15.9917 7.425 16.175 7.575 16.325C7.725 16.475 7.90833 16.55 8.125 16.55ZM8.125 12.775C8.34167 12.775 8.521 12.7 8.663 12.55C8.80433 12.4 8.875 12.2167 8.875 12C8.875 11.7833 8.80433 11.6 8.663 11.45C8.521 11.3 8.34167 11.225 8.125 11.225C7.89167 11.225 7.704 11.3 7.562 11.45C7.42067 11.6 7.35 11.7833 7.35 12C7.35 12.2167 7.425 12.4 7.575 12.55C7.725 12.7 7.90833 12.775 8.125 12.775ZM8.125 9C8.34167 9 8.521 8.925 8.663 8.775C8.80433 8.625 8.875 8.44167 8.875 8.225C8.875 8.00833 8.80433 7.825 8.663 7.675C8.521 7.525 8.34167 7.45 8.125 7.45C7.89167 7.45 7.704 7.525 7.562 7.675C7.42067 7.825 7.35 8.00833 7.35 8.225C7.35 8.44167 7.425 8.625 7.575 8.775C7.725 8.925 7.90833 9 8.125 9ZM11.2 16.275H16.575V15.275H11.2V16.275ZM11.2 12.5H16.575V11.5H11.2V12.5ZM11.2 8.725H16.575V7.725H11.2V8.725ZM5.625 20C5.15833 20 4.771 19.846 4.463 19.538C4.15433 19.2293 4 18.8417 4 18.375V5.625C4 5.15833 4.15433 4.771 4.463 4.463C4.771 4.15433 5.15833 4 5.625 4H18.375C18.8417 4 19.2293 4.15433 19.538 4.463C19.846 4.771 20 5.15833 20 5.625V18.375C20 18.8417 19.846 19.2293 19.538 19.538C19.2293 19.846 18.8417 20 18.375 20H5.625ZM5.625 19H18.375C18.5417 19 18.6873 18.9373 18.812 18.812C18.9373 18.6873 19 18.5417 19 18.375V5.625C19 5.45833 18.9373 5.31267 18.812 5.188C18.6873 5.06267 18.5417 5 18.375 5H5.625C5.45833 5 5.31267 5.06267 5.188 5.188C5.06267 5.31267 5 5.45833 5 5.625V18.375C5 18.5417 5.06267 18.6873 5.188 18.812C5.31267 18.9373 5.45833 19 5.625 19Z" />
    </g>
</svg>