<svg width="24" height="24" viewBox="0 0 24 24" fill="none" xmlns="http://www.w3.org/2000/svg">
    <mask id="mask0_943_1884" style="mask-type:alpha" maskUnits="userSpaceOnUse" x="0" y="0" width="24" height="24">
        <rect width="24" height="24" fill="#D9D9D9"/>
    </mask>
    <g mask="url(#mask0_943_1884)">
        <path d="M8.65 12.375H9.425V10.375H10.65C10.8667 10.375 11.05 10.304 11.2 10.162C11.35 10.0207 11.425 9.84167 11.425 9.625V8.375C11.425 8.15833 11.35 7.979 11.2 7.837C11.05 7.69567 10.8667 7.625 10.65 7.625H8.65V12.375ZM9.425 9.625V8.375H10.65V9.625H9.425ZM12.45 12.375H14.375C14.5917 12.375 14.775 12.304 14.925 12.162C15.075 12.0207 15.15 11.8417 15.15 11.625V8.375C15.15 8.15833 15.075 7.979 14.925 7.837C14.775 7.69567 14.5917 7.625 14.375 7.625H12.45V12.375ZM13.225 11.625V8.375H14.375V11.625H13.225ZM16.375 12.375H17.15V10.375H18.55V9.625H17.15V8.375H18.55V7.625H16.375V12.375ZM8.125 17C7.65833 17 7.271 16.846 6.963 16.538C6.65433 16.2293 6.5 15.8417 6.5 15.375V4.625C6.5 4.15833 6.65433 3.77067 6.963 3.462C7.271 3.154 7.65833 3 8.125 3H18.875C19.3417 3 19.7293 3.154 20.038 3.462C20.346 3.77067 20.5 4.15833 20.5 4.625V15.375C20.5 15.8417 20.346 16.2293 20.038 16.538C19.7293 16.846 19.3417 17 18.875 17H8.125Z" fill="#FF2E56"/>
        <path d="M3.962 19.538C4.27067 19.846 4.65833 20 5.125 20H16.875V19H5.125C4.95833 19 4.81267 18.9373 4.688 18.812C4.56267 18.6873 4.5 18.5417 4.5 18.375V6.625H3.5V18.375C3.5 18.8417 3.654 19.2293 3.962 19.538Z" fill="#1C1B1F"/>
    </g>
</svg>
