<svg width="24" height="24" viewBox="0 0 24 24" fill="none" xmlns="http://www.w3.org/2000/svg">
    <mask id="mask0_978_4614" style="mask-type:alpha" maskUnits="userSpaceOnUse" x="0" y="0" width="24" height="24">
        <rect width="24" height="24" fill="#D9D9D9"/>
    </mask>
    <g mask="url(#mask0_978_4614)">
        <path d="M19.4748 20.1504L13.2248 13.9004C12.7248 14.3171 12.1498 14.6421 11.4998 14.8754C10.8498 15.1087 10.1998 15.2254 9.5498 15.2254C7.93314 15.2254 6.5708 14.6711 5.4628 13.5624C4.35414 12.4544 3.7998 11.1004 3.7998 9.50039C3.7998 7.90039 4.35414 6.54606 5.4628 5.43739C6.5708 4.32939 7.9248 3.77539 9.5248 3.77539C11.1248 3.77539 12.4831 4.32939 13.5998 5.43739C14.7165 6.54606 15.2748 7.90039 15.2748 9.50039C15.2748 10.2004 15.1498 10.8754 14.8998 11.5254C14.6498 12.1754 14.3248 12.7254 13.9248 13.1754L20.1998 19.4504L19.4748 20.1504ZM9.5498 14.2254C10.8665 14.2254 11.9831 13.7714 12.8998 12.8634C13.8165 11.9547 14.2748 10.8337 14.2748 9.50039C14.2748 8.16706 13.8165 7.04606 12.8998 6.13739C11.9831 5.22939 10.8665 4.77539 9.5498 4.77539C8.21647 4.77539 7.09147 5.22939 6.1748 6.13739C5.25814 7.04606 4.7998 8.16706 4.7998 9.50039C4.7998 10.8337 5.25814 11.9547 6.1748 12.8634C7.09147 13.7714 8.21647 14.2254 9.5498 14.2254Z" fill="#A7A7AB"/>
    </g>
</svg>
