<svg width="24" height="24" viewBox="0 0 24 24" fill="none" xmlns="http://www.w3.org/2000/svg">
    <mask id="mask0_1029_1262" style="mask-type:alpha" maskUnits="userSpaceOnUse" x="0" y="0" width="24" height="24">
        <rect width="24" height="24" fill="#D9D9D9"/>
    </mask>
    <g mask="url(#mask0_1029_1262)">
        <path d="M14 11.45C14.7 11.45 15.2917 11.2083 15.775 10.725C16.2583 10.2417 16.5 9.65833 16.5 8.975C16.5 8.275 16.2583 7.67933 15.775 7.188C15.2917 6.696 14.7 6.45 14 6.45C13.3 6.45 12.7083 6.696 12.225 7.188C11.7417 7.67933 11.5 8.26667 11.5 8.95C11.5 9.65 11.7417 10.2417 12.225 10.725C12.7083 11.2083 13.3 11.45 14 11.45ZM8.575 15.95C9.29167 15.1833 10.1167 14.5917 11.05 14.175C11.9833 13.7583 12.9667 13.55 14 13.55C15.0333 13.55 16.0167 13.7583 16.95 14.175C17.8833 14.5917 18.7083 15.1833 19.425 15.95C19.5917 15.95 19.729 15.8873 19.837 15.762C19.9457 15.6373 20 15.4917 20 15.325V4.625C20 4.44167 19.9417 4.29167 19.825 4.175C19.7083 4.05833 19.5583 4 19.375 4H8.625C8.44167 4 8.29167 4.05833 8.175 4.175C8.05833 4.29167 8 4.44167 8 4.625V15.325C8 15.4917 8.05433 15.6373 8.163 15.762C8.271 15.8873 8.40833 15.95 8.575 15.95ZM8.625 17C8.175 17 7.79167 16.8417 7.475 16.525C7.15833 16.2083 7 15.825 7 15.375V4.625C7 4.175 7.15833 3.79167 7.475 3.475C7.79167 3.15833 8.175 3 8.625 3H19.375C19.825 3 20.2083 3.15833 20.525 3.475C20.8417 3.79167 21 4.175 21 4.625V15.375C21 15.825 20.8417 16.2083 20.525 16.525C20.2083 16.8417 19.825 17 19.375 17H8.625ZM4.625 21C4.175 21 3.79167 20.8417 3.475 20.525C3.15833 20.2083 3 19.825 3 19.375V7H4V19.375C4 19.5583 4.05833 19.7083 4.175 19.825C4.29167 19.9417 4.44167 20 4.625 20H17V21H4.625ZM14 10.45C13.5833 10.45 13.2293 10.304 12.938 10.012C12.646 9.72067 12.5 9.36667 12.5 8.95C12.5 8.55 12.646 8.2 12.938 7.9C13.2293 7.6 13.5833 7.45 14 7.45C14.4167 7.45 14.7707 7.6 15.062 7.9C15.354 8.2 15.5 8.55 15.5 8.95C15.5 9.36667 15.354 9.72067 15.062 10.012C14.7707 10.304 14.4167 10.45 14 10.45ZM9.975 16H18.025C17.475 15.5167 16.8543 15.154 16.163 14.912C15.471 14.6707 14.75 14.55 14 14.55C13.25 14.55 12.5293 14.6707 11.838 14.912C11.146 15.154 10.525 15.5167 9.975 16Z"/>
    </g>
</svg>
